<svg version="1.1" viewBox="0 0 384.97 512.69" xmlns="http://www.w3.org/2000/svg">
 <path class="UnoptimicedTransforms" transform="translate(.45101 .24209)" d="m245.29-0.21289c-11.677-0.22692-23.649 0.96723-35.104 0.21289-55.699 0.17521-111.42-0.35153-167.1 0.26562-28.113 2.0902-46.713 30.529-43.086 57.277 0.16506 137.12-0.33014 274.26 0.24805 411.37 2.0003 28.126 30.465 46.715 57.193 43.086 94.463-0.16459 188.94 0.32952 283.39-0.24805 28.13-1.9981 46.802-30.436 43.164-57.193-0.11524-66.347 0.285-132.69 0.52344-199.04-16.6 16.907-3.0599 3.9105-19.775 20.689-13.886 10.69-25.834 63.237-29.285 80.23-3.5281 11.789-34.365 15.773-37.893 27.562-10.958-1.2796-23.744 3.2131-33.074-3.7461-10.516-28.891-50.704-28.873-68.701-19.486-6.4686-16.096-8.8375-34.34-18.947-48.561-15.06-15.66-40.192-2.5226-42.199 17.189-5.8987 16.635-10.536 33.802-17.26 50.09-9.6937 10.26-30.083-2.5103-36.131 14.285-6.8405 17.419 13.089 24.982 26.895 22.229 23.052 0.92863 40.343-18.572 44.641-39.779 2.6867-5.0343 5.3739-22.447 8.0606-19.078 6.2095 17.31 10.826 35.286 18.109 52.146 13.484 16.7 29.677-1.1062 33.977-15.436 16.37-24.254 25.616 15.116 42.367 18.469 19.434 6.6713 40.493 2.4961 60.703 3.668 6.4542 2.0094 21.855-4.9276 19.99 5.4004v42.609h-288.01v-415.91h159.97c0.31722 36.269-0.64026 72.602 0.48437 108.83 3.3481 19.27 24.229 20.099 39.719 19.141h87.836v78l48-47.58c-0.5218-27.955 1.1113-56.046-0.94922-83.904-5.5736-23.631-27.643-36.895-42.82-54.186-20.656-19.957-39.951-41.455-61.598-60.291-10.279-6.438-21.663-8.0856-33.34-8.3125zm139.23 255.73c-256.35-170.35-128.17-85.173 0 0zm-128.57-203.53c25.363 25.36 50.727 50.72 76.09 76.08h-76.09z"/>
 <rect x="335.8" y="169.32" width="48.739" height="190.37"/>
 <rect x="337.77" y="222.09" width=".31428" height="1.5928" ry=".15714"/>
</svg>
